<svg width="434" height="748" viewBox="0 0 434 748" fill="none" xmlns="http://www.w3.org/2000/svg">
<path d="M434 606.7V0H303.5H244.438H185.938H125.188H0V436.061C0 439.474 0 441.181 0.0566439 442.759C1.19478 474.464 19.3109 503.103 47.4718 517.714C48.8734 518.441 50.4156 519.172 53.5 520.635C56.5844 522.097 58.1266 522.828 59.5282 523.555C87.6891 538.167 105.805 566.805 106.943 598.51C107 600.088 107 601.795 107 605.209V624.076C107 657.044 107 673.528 111.362 686.861C120.081 713.516 140.984 734.419 167.639 743.139C180.972 747.5 197.456 747.5 230.424 747.5L293.2 747.5C342.485 747.5 367.127 747.5 385.951 737.909C402.509 729.472 415.972 716.009 424.409 699.451C434 680.627 434 655.985 434 606.7Z" fill="#FF0000"/>
</svg>
